<svg xmlns="http://www.w3.org/2000/svg" width="1629.333" height="1629.333" preserveAspectRatio="xMidYMid meet" version="1.0" viewBox="0 0 1222 1222"><metadata>Created by potrace 1.14, written by Peter Selinger 2001-2017</metadata><g fill="#000" stroke="none"><path d="M5967 10194 c-2 -2 -117 -13 -182 -18 -16 -2 -48 -6 -70 -9 -22 -4 -58 -9 -80 -12 -64 -9 -94 -15 -190 -36 -398 -89 -724 -223 -1098 -454 -71 -43 -231 -159 -314 -227 -577 -471 -983 -1108 -1157 -1813 -19 -77 -37 -156 -40 -175 -3 -19 -8 -46 -11 -60 -8 -41 -13 -72 -21 -130 -4 -30 -8 -66 -10 -80 -2 -14 -6 -68 -9 -120 -3 -52 -8 -116 -10 -142 -2 -27 -2 -48 1 -48 3 0 199 195 435 433 290 291 436 445 448 472 11 22 29 65 42 95 73 177 237 447 375 620 67 83 269 291 349 359 198 168 480 341 703 432 l83 34 437 438 c240 241 438 440 440 441 3 3 -117 3 -121 0z" transform="translate(0.000000,1222.000000) scale(0.100000,-0.100000)"/><path d="M6305 9830 c-187 -187 -335 -340 -330 -341 6 0 44 0 85 2 41 1 100 2 130 2 73 0 285 -12 302 -17 7 -3 36 -7 63 -10 168 -18 493 -106 653 -177 198 -88 333 -162 487 -267 276 -188 492 -404 706 -703 27 -38 49 -72 49 -75 0 -3 8 -18 19 -32 42 -59 131 -230 194 -373 17 -36 94 -247 96 -261 0 -5 1 -9 2 -10 0 -2 2 -10 4 -18 68 -261 80 -331 101 -565 9 -104 3 -392 -10 -492 -4 -26 -9 -61 -11 -78 -12 -96 -46 -258 -72 -345 -24 -84 -63 -203 -73 -225 -5 -11 -19 -44 -30 -74 -90 -234 -288 -553 -470 -756 -242 -271 -512 -477 -830 -635 -161 -81 -271 -123 -495 -189 -204 -61 -445 -89 -745 -87 -135 1 -250 5 -255 8 -6 3 -35 9 -65 12 -157 17 -431 87 -610 158 -515 201 -953 552 -1262 1008 -263 390 -413 823 -453 1310 -7 80 -7 313 0 358 4 30 3 32 -12 20 -9 -7 -162 -159 -340 -338 l-324 -325 5 -45 c7 -51 15 -98 21 -120 2 -8 7 -31 10 -50 9 -51 42 -182 67 -264 12 -39 23 -79 25 -88 11 -60 137 -359 218 -515 320 -618 824 -1126 1437 -1447 173 -91 482 -220 578 -241 8 -2 15 -4 15 -5 0 -1 7 -3 15 -5 8 -2 58 -15 110 -29 123 -33 277 -63 410 -81 25 -3 56 -8 70 -10 151 -23 629 -24 760 0 8 1 42 5 75 9 33 4 83 11 110 17 28 5 64 11 80 14 130 17 501 127 635 186 14 6 39 17 55 24 172 72 415 204 560 304 44 30 94 64 110 75 17 12 73 55 125 98 239 192 447 409 624 651 135 183 327 523 381 672 10 28 22 55 25 60 15 22 114 316 136 405 37 152 68 314 89 470 25 194 25 571 0 795 -12 98 -58 342 -86 450 -92 360 -255 727 -461 1034 -59 88 -186 259 -208 281 -8 8 -32 35 -52 60 -72 89 -268 283 -382 378 -302 252 -625 442 -981 577 -203 77 -480 154 -615 171 -39 4 -87 13 -110 20 -10 2 -139 -120 -355 -336z" transform="translate(0.000000,1222.000000) scale(0.100000,-0.100000)"/><path d="M715 5381 c-6 -5 -116 -62 -245 -126 -129 -65 -237 -119 -239 -121 -5 -5 61 -131 152 -289 134 -232 332 -518 506 -730 205 -251 506 -563 711 -735 29 -25 58 -50 64 -56 73 -71 411 -325 601 -451 135 -90 418 -263 430 -263 2 0 28 -14 57 -31 82 -49 391 -201 513 -254 61 -26 124 -53 140 -61 17 -7 66 -27 110 -44 44 -17 89 -35 100 -39 35 -16 246 -88 350 -121 55 -17 114 -35 130 -40 84 -26 216 -61 355 -95 175 -41 203 -48 210 -50 3 -1 25 -5 50 -9 25 -5 54 -10 65 -12 144 -28 239 -44 280 -49 28 -4 60 -8 72 -10 12 -2 54 -8 95 -14 72 -10 98 -13 248 -26 41 -4 86 -9 100 -11 69 -11 328 -19 605 -19 359 0 570 10 815 40 19 3 58 7 85 10 28 3 70 8 95 11 174 20 521 87 755 145 66 17 127 32 135 33 102 24 547 166 645 206 17 7 40 16 53 21 119 47 149 59 257 105 61 25 209 95 330 154 189 93 269 137 482 261 133 77 371 237 553 372 74 55 137 103 140 106 3 4 21 19 40 34 267 215 548 483 745 712 28 32 59 67 70 79 130 139 431 559 561 781 16 27 34 57 39 66 6 9 41 74 79 144 55 102 66 129 55 136 -8 5 -121 63 -251 129 l-237 120 -14 -22 c-8 -13 -47 -83 -88 -157 -96 -174 -90 -164 -193 -320 -429 -650 -1029 -1225 -1731 -1658 -166 -103 -634 -353 -659 -353 -3 0 -33 -13 -68 -29 -108 -49 -132 -59 -279 -117 -307 -120 -709 -240 -999 -299 -107 -22 -125 -25 -265 -51 -84 -15 -245 -38 -345 -49 -30 -4 -66 -8 -80 -10 -30 -5 -171 -16 -390 -30 -92 -6 -563 -7 -672 -1 -37 2 -102 7 -145 10 -43 4 -105 9 -138 11 -33 3 -82 8 -110 11 -27 4 -66 8 -85 9 -45 4 -320 44 -340 50 -8 2 -33 7 -55 10 -258 39 -740 168 -1070 287 -322 117 -823 351 -1020 478 -16 11 -37 23 -45 27 -33 15 -212 130 -328 210 -137 94 -303 220 -432 327 -214 178 -449 407 -625 611 -27 32 -54 63 -60 69 -185 210 -427 566 -590 866 -65 119 -67 123 -80 111z" transform="translate(0.000000,1222.000000) scale(0.100000,-0.100000)"/></g></svg>